<svg xmlns="http://www.w3.org/2000/svg" viewBox="0 0 900 420" font-family="Arial, sans-serif" font-size="11">
<title>每方法错误率</title>
<style>
  .axis { stroke: #888; stroke-width: 1; }
  .gridline { stroke: #ddd; stroke-width: 0.5; }
  .label { fill: #333; }
  .title { font-size: 14px; font-weight: bold; fill: #222; }
</style>
<text class="title" x="450.0" y="22" text-anchor="middle">每方法错误率</text>
<rect x="70" y="40" width="630" height="330" fill="#fafafa" stroke="#ccc"/>

<line class="gridline" x1="70.0" y1="40" x2="70.0" y2="370"/>
<text class="label" x="70.0" y="384" text-anchor="middle">1700000000</text>
<line class="gridline" x1="196.0" y1="40" x2="196.0" y2="370"/>
<text class="label" x="196.0" y="384" text-anchor="middle">1700000011</text>
<line class="gridline" x1="322.0" y1="40" x2="322.0" y2="370"/>
<text class="label" x="322.0" y="384" text-anchor="middle">1700000023</text>
<line class="gridline" x1="448.0" y1="40" x2="448.0" y2="370"/>
<text class="label" x="448.0" y="384" text-anchor="middle">1700000035</text>
<line class="gridline" x1="574.0" y1="40" x2="574.0" y2="370"/>
<text class="label" x="574.0" y="384" text-anchor="middle">1700000047</text>
<line class="gridline" x1="700.0" y1="40" x2="700.0" y2="370"/>
<text class="label" x="700.0" y="384" text-anchor="middle">1700000059</text>
<line class="gridline" x1="70" y1="370.0" x2="700" y2="370.0"/>
<text class="label" x="65" y="373.0" text-anchor="end">0.0</text>
<line class="gridline" x1="70" y1="304.0" x2="700" y2="304.0"/>
<text class="label" x="65" y="307.0" text-anchor="end">4.4</text>
<line class="gridline" x1="70" y1="238.0" x2="700" y2="238.0"/>
<text class="label" x="65" y="241.0" text-anchor="end">8.8</text>
<line class="gridline" x1="70" y1="172.0" x2="700" y2="172.0"/>
<text class="label" x="65" y="175.0" text-anchor="end">13.2</text>
<line class="gridline" x1="70" y1="106.0" x2="700" y2="106.0"/>
<text class="label" x="65" y="109.0" text-anchor="end">17.6</text>
<line class="gridline" x1="70" y1="40.0" x2="700" y2="40.0"/>
<text class="label" x="65" y="43.0" text-anchor="end">22.0</text>
<text class="label" x="385.0" y="410" text-anchor="middle">time (epoch s)</text>
<text class="label" x="15" y="205.0" text-anchor="middle" transform="rotate(-90 15 205.0)">error rate (%)</text>

<polyline fill="none" stroke="#1f77b4" stroke-width="1.5" points="70.00,370.00 80.68,370.00 91.36,370.00 102.03,370.00 112.71,370.00 123.39,370.00 134.07,370.00 144.75,370.00 155.42,370.00 166.10,370.00 176.78,370.00 187.46,370.00 198.14,370.00 208.81,370.00 219.49,370.00 230.17,370.00 240.85,370.00 251.53,370.00 262.20,370.00 272.88,370.00 283.56,370.00 294.24,370.00 304.92,370.00 315.59,370.00 326.27,370.00 336.95,370.00 347.63,370.00 358.31,370.00 368.98,370.00 379.66,370.00 390.34,70.00 401.02,370.00 411.69,370.00 422.37,370.00 433.05,370.00 443.73,370.00 454.41,370.00 465.08,370.00 475.76,370.00 486.44,370.00 497.12,370.00 507.80,370.00 518.47,370.00 529.15,370.00 539.83,370.00 550.51,370.00 561.19,370.00 571.86,370.00 582.54,370.00 593.22,370.00 603.90,370.00 614.58,370.00 625.25,370.00 635.93,370.00 646.61,370.00 657.29,370.00 667.97,370.00 678.64,370.00 689.32,370.00 700.00,370.00"/>
<polyline fill="none" stroke="#ff7f0e" stroke-width="1.5" points="70.00,370.00 80.68,370.00 91.36,370.00 102.03,370.00 112.71,370.00 123.39,370.00 134.07,370.00 144.75,370.00 155.42,370.00 166.10,370.00 176.78,370.00 187.46,370.00 198.14,370.00 208.81,370.00 219.49,370.00 230.17,370.00 240.85,370.00 251.53,370.00 262.20,370.00 272.88,370.00 283.56,370.00 294.24,370.00 304.92,370.00 315.59,370.00 326.27,370.00 336.95,370.00 347.63,370.00 358.31,370.00 368.98,370.00 379.66,370.00 390.34,370.00 401.02,370.00 411.69,370.00 422.37,370.00 433.05,370.00 443.73,370.00 454.41,370.00 465.08,370.00 475.76,370.00 486.44,370.00 497.12,370.00 507.80,370.00 518.47,370.00 529.15,370.00 539.83,370.00 550.51,370.00 561.19,370.00 571.86,370.00 582.54,370.00 593.22,370.00 603.90,370.00 614.58,370.00 625.25,370.00 635.93,370.00 646.61,370.00 657.29,370.00 667.97,370.00 678.64,370.00 689.32,370.00 700.00,370.00"/>
<polyline fill="none" stroke="#2ca02c" stroke-width="1.5" points="70.00,370.00 80.68,370.00 91.36,370.00 102.03,370.00 112.71,370.00 123.39,370.00 134.07,370.00 144.75,370.00 155.42,370.00 166.10,370.00 176.78,370.00 187.46,370.00 198.14,370.00 208.81,370.00 219.49,370.00 230.17,370.00 240.85,370.00 251.53,370.00 262.20,370.00 272.88,370.00 283.56,370.00 294.24,370.00 304.92,370.00 315.59,370.00 326.27,370.00 336.95,370.00 347.63,370.00 358.31,370.00 368.98,370.00 379.66,370.00 390.34,370.00 401.02,370.00 411.69,370.00 422.37,370.00 433.05,370.00 443.73,370.00 454.41,370.00 465.08,370.00 475.76,370.00 486.44,370.00 497.12,370.00 507.80,370.00 518.47,370.00 529.15,370.00 539.83,370.00 550.51,370.00 561.19,370.00 571.86,370.00 582.54,370.00 593.22,370.00 603.90,370.00 614.58,370.00 625.25,370.00 635.93,370.00 646.61,370.00 657.29,370.00 667.97,370.00 678.64,370.00 689.32,370.00 700.00,370.00"/>
<rect x="712" y="42" width="12" height="12" fill="#1f77b4"/>
<text class="label" x="728" y="52">getSlot</text>
<rect x="712" y="60" width="12" height="12" fill="#ff7f0e"/>
<text class="label" x="728" y="70">getBlock</text>
<rect x="712" y="78" width="12" height="12" fill="#2ca02c"/>
<text class="label" x="728" y="88">getHealth</text>

</svg>
