<svg xmlns="http://www.w3.org/2000/svg" viewBox="0 0 900 420" font-family="Arial, sans-serif" font-size="11">
<title>每方法 p99 延迟</title>
<style>
  .axis { stroke: #888; stroke-width: 1; }
  .gridline { stroke: #ddd; stroke-width: 0.5; }
  .label { fill: #333; }
  .title { font-size: 14px; font-weight: bold; fill: #222; }
</style>
<text class="title" x="450.0" y="22" text-anchor="middle">每方法 p99 延迟</text>
<rect x="70" y="40" width="630" height="330" fill="#fafafa" stroke="#ccc"/>

<line class="gridline" x1="70.0" y1="40" x2="70.0" y2="370"/>
<text class="label" x="70.0" y="384" text-anchor="middle">1700000000</text>
<line class="gridline" x1="196.0" y1="40" x2="196.0" y2="370"/>
<text class="label" x="196.0" y="384" text-anchor="middle">1700000011</text>
<line class="gridline" x1="322.0" y1="40" x2="322.0" y2="370"/>
<text class="label" x="322.0" y="384" text-anchor="middle">1700000023</text>
<line class="gridline" x1="448.0" y1="40" x2="448.0" y2="370"/>
<text class="label" x="448.0" y="384" text-anchor="middle">1700000035</text>
<line class="gridline" x1="574.0" y1="40" x2="574.0" y2="370"/>
<text class="label" x="574.0" y="384" text-anchor="middle">1700000047</text>
<line class="gridline" x1="700.0" y1="40" x2="700.0" y2="370"/>
<text class="label" x="700.0" y="384" text-anchor="middle">1700000059</text>
<line class="gridline" x1="70" y1="370.0" x2="700" y2="370.0"/>
<text class="label" x="65" y="373.0" text-anchor="end">0.0</text>
<line class="gridline" x1="70" y1="304.0" x2="700" y2="304.0"/>
<text class="label" x="65" y="307.0" text-anchor="end">7.4</text>
<line class="gridline" x1="70" y1="238.0" x2="700" y2="238.0"/>
<text class="label" x="65" y="241.0" text-anchor="end">14.9</text>
<line class="gridline" x1="70" y1="172.0" x2="700" y2="172.0"/>
<text class="label" x="65" y="175.0" text-anchor="end">22.3</text>
<line class="gridline" x1="70" y1="106.0" x2="700" y2="106.0"/>
<text class="label" x="65" y="109.0" text-anchor="end">29.8</text>
<line class="gridline" x1="70" y1="40.0" x2="700" y2="40.0"/>
<text class="label" x="65" y="43.0" text-anchor="end">37.2</text>
<text class="label" x="385.0" y="410" text-anchor="middle">time (epoch s)</text>
<text class="label" x="15" y="205.0" text-anchor="middle" transform="rotate(-90 15 205.0)">p99 latency (ms)</text>

<polyline fill="none" stroke="#1f77b4" stroke-width="1.5" points="70.00,316.76 80.68,316.76 91.36,316.76 102.03,316.76 112.71,316.76 123.39,316.76 134.07,316.76 144.75,316.76 155.42,316.76 166.10,316.76 176.78,316.76 187.46,316.76 198.14,316.76 208.81,316.76 219.49,316.76 230.17,316.76 240.85,316.76 251.53,316.76 262.20,316.76 272.88,316.76 283.56,316.76 294.24,316.76 304.92,316.76 315.59,316.76 326.27,316.76 336.95,316.76 347.63,316.76 358.31,316.76 368.98,316.76 379.66,316.76 390.34,316.76 401.02,316.76 411.69,316.76 422.37,316.76 433.05,316.76 443.73,316.76 454.41,316.76 465.08,316.76 475.76,316.76 486.44,316.76 497.12,316.76 507.80,316.76 518.47,316.76 529.15,316.76 539.83,316.76 550.51,316.76 561.19,316.76 571.86,316.76 582.54,316.76 593.22,316.76 603.90,316.76 614.58,316.76 625.25,316.76 635.93,316.76 646.61,316.76 657.29,316.76 667.97,316.76 678.64,316.76 689.32,316.76 700.00,316.76"/>
<polyline fill="none" stroke="#ff7f0e" stroke-width="1.5" points="70.00,70.00 80.68,70.00 91.36,70.00 102.03,70.00 112.71,70.00 123.39,70.00 134.07,70.00 144.75,70.00 155.42,70.00 166.10,70.00 176.78,70.00 187.46,70.00 198.14,70.00 208.81,70.00 219.49,70.00 230.17,70.00 240.85,70.00 251.53,70.00 262.20,70.00 272.88,70.00 283.56,70.00 294.24,70.00 304.92,70.00 315.59,70.00 326.27,70.00 336.95,70.00 347.63,70.00 358.31,70.00 368.98,70.00 379.66,70.00 390.34,70.00 401.02,70.00 411.69,70.00 422.37,70.00 433.05,70.00 443.73,70.00 454.41,70.00 465.08,70.00 475.76,70.00 486.44,70.00 497.12,70.00 507.80,70.00 518.47,70.00 529.15,70.00 539.83,70.00 550.51,70.00 561.19,70.00 571.86,70.00 582.54,70.00 593.22,70.00 603.90,70.00 614.58,70.00 625.25,70.00 635.93,70.00 646.61,70.00 657.29,70.00 667.97,70.00 678.64,70.00 689.32,70.00 700.00,70.00"/>
<polyline fill="none" stroke="#2ca02c" stroke-width="1.5" points="70.00,361.13 80.68,361.13 91.36,361.13 102.03,361.13 112.71,361.13 123.39,361.13 134.07,361.13 144.75,361.13 155.42,361.13 166.10,361.13 176.78,361.13 187.46,361.13 198.14,361.13 208.81,361.13 219.49,361.13 230.17,361.13 240.85,361.13 251.53,361.13 262.20,361.13 272.88,361.13 283.56,361.13 294.24,361.13 304.92,361.13 315.59,361.13 326.27,361.13 336.95,361.13 347.63,361.13 358.31,361.13 368.98,361.13 379.66,361.13 390.34,361.13 401.02,361.13 411.69,361.13 422.37,361.13 433.05,361.13 443.73,361.13 454.41,361.13 465.08,361.13 475.76,361.13 486.44,361.13 497.12,361.13 507.80,361.13 518.47,361.13 529.15,361.13 539.83,361.13 550.51,361.13 561.19,361.13 571.86,361.13 582.54,361.13 593.22,361.13 603.90,361.13 614.58,361.13 625.25,361.13 635.93,361.13 646.61,361.13 657.29,361.13 667.97,361.13 678.64,361.13 689.32,361.13 700.00,361.13"/>
<rect x="712" y="42" width="12" height="12" fill="#1f77b4"/>
<text class="label" x="728" y="52">getSlot</text>
<rect x="712" y="60" width="12" height="12" fill="#ff7f0e"/>
<text class="label" x="728" y="70">getBlock</text>
<rect x="712" y="78" width="12" height="12" fill="#2ca02c"/>
<text class="label" x="728" y="88">getHealth</text>

</svg>
