<svg xmlns="http://www.w3.org/2000/svg" viewBox="0 0 900 420" font-family="Arial, sans-serif" font-size="11">
<title>每方法 QPS</title>
<style>
  .axis { stroke: #888; stroke-width: 1; }
  .gridline { stroke: #ddd; stroke-width: 0.5; }
  .label { fill: #333; }
  .title { font-size: 14px; font-weight: bold; fill: #222; }
</style>
<text class="title" x="450.0" y="22" text-anchor="middle">每方法 QPS</text>
<rect x="70" y="40" width="630" height="330" fill="#fafafa" stroke="#ccc"/>

<line class="gridline" x1="70.0" y1="40" x2="70.0" y2="370"/>
<text class="label" x="70.0" y="384" text-anchor="middle">1700000000</text>
<line class="gridline" x1="196.0" y1="40" x2="196.0" y2="370"/>
<text class="label" x="196.0" y="384" text-anchor="middle">1700000011</text>
<line class="gridline" x1="322.0" y1="40" x2="322.0" y2="370"/>
<text class="label" x="322.0" y="384" text-anchor="middle">1700000023</text>
<line class="gridline" x1="448.0" y1="40" x2="448.0" y2="370"/>
<text class="label" x="448.0" y="384" text-anchor="middle">1700000035</text>
<line class="gridline" x1="574.0" y1="40" x2="574.0" y2="370"/>
<text class="label" x="574.0" y="384" text-anchor="middle">1700000047</text>
<line class="gridline" x1="700.0" y1="40" x2="700.0" y2="370"/>
<text class="label" x="700.0" y="384" text-anchor="middle">1700000059</text>
<line class="gridline" x1="70" y1="370.0" x2="700" y2="370.0"/>
<text class="label" x="65" y="373.0" text-anchor="end">0.0</text>
<line class="gridline" x1="70" y1="304.0" x2="700" y2="304.0"/>
<text class="label" x="65" y="307.0" text-anchor="end">22.0</text>
<line class="gridline" x1="70" y1="238.0" x2="700" y2="238.0"/>
<text class="label" x="65" y="241.0" text-anchor="end">44.0</text>
<line class="gridline" x1="70" y1="172.0" x2="700" y2="172.0"/>
<text class="label" x="65" y="175.0" text-anchor="end">66.0</text>
<line class="gridline" x1="70" y1="106.0" x2="700" y2="106.0"/>
<text class="label" x="65" y="109.0" text-anchor="end">88.0</text>
<line class="gridline" x1="70" y1="40.0" x2="700" y2="40.0"/>
<text class="label" x="65" y="43.0" text-anchor="end">110.0</text>
<text class="label" x="385.0" y="410" text-anchor="middle">time (epoch s)</text>
<text class="label" x="15" y="205.0" text-anchor="middle" transform="rotate(-90 15 205.0)">QPS</text>

<polyline fill="none" stroke="#1f77b4" stroke-width="1.5" points="70.00,70.00 80.68,70.00 91.36,70.00 102.03,70.00 112.71,70.00 123.39,70.00 134.07,70.00 144.75,70.00 155.42,70.00 166.10,70.00 176.78,70.00 187.46,70.00 198.14,70.00 208.81,70.00 219.49,70.00 230.17,70.00 240.85,70.00 251.53,70.00 262.20,70.00 272.88,70.00 283.56,70.00 294.24,70.00 304.92,70.00 315.59,70.00 326.27,70.00 336.95,70.00 347.63,70.00 358.31,70.00 368.98,70.00 379.66,70.00 390.34,70.00 401.02,70.00 411.69,70.00 422.37,70.00 433.05,70.00 443.73,70.00 454.41,70.00 465.08,70.00 475.76,70.00 486.44,70.00 497.12,70.00 507.80,70.00 518.47,70.00 529.15,70.00 539.83,70.00 550.51,70.00 561.19,70.00 571.86,70.00 582.54,70.00 593.22,70.00 603.90,70.00 614.58,70.00 625.25,70.00 635.93,70.00 646.61,70.00 657.29,70.00 667.97,70.00 678.64,70.00 689.32,70.00 700.00,70.00"/>
<polyline fill="none" stroke="#ff7f0e" stroke-width="1.5" points="70.00,310.00 80.68,310.00 91.36,310.00 102.03,310.00 112.71,310.00 123.39,310.00 134.07,310.00 144.75,310.00 155.42,310.00 166.10,310.00 176.78,310.00 187.46,310.00 198.14,310.00 208.81,310.00 219.49,310.00 230.17,310.00 240.85,310.00 251.53,310.00 262.20,310.00 272.88,310.00 283.56,310.00 294.24,310.00 304.92,310.00 315.59,310.00 326.27,310.00 336.95,310.00 347.63,310.00 358.31,310.00 368.98,310.00 379.66,310.00 390.34,310.00 401.02,310.00 411.69,310.00 422.37,310.00 433.05,310.00 443.73,310.00 454.41,310.00 465.08,310.00 475.76,310.00 486.44,310.00 497.12,310.00 507.80,310.00 518.47,310.00 529.15,310.00 539.83,310.00 550.51,310.00 561.19,310.00 571.86,310.00 582.54,310.00 593.22,310.00 603.90,310.00 614.58,310.00 625.25,310.00 635.93,310.00 646.61,310.00 657.29,310.00 667.97,310.00 678.64,310.00 689.32,310.00 700.00,310.00"/>
<polyline fill="none" stroke="#2ca02c" stroke-width="1.5" points="70.00,355.00 80.68,355.00 91.36,355.00 102.03,355.00 112.71,355.00 123.39,355.00 134.07,355.00 144.75,355.00 155.42,355.00 166.10,355.00 176.78,355.00 187.46,355.00 198.14,355.00 208.81,355.00 219.49,355.00 230.17,355.00 240.85,355.00 251.53,355.00 262.20,355.00 272.88,355.00 283.56,355.00 294.24,355.00 304.92,355.00 315.59,355.00 326.27,355.00 336.95,355.00 347.63,355.00 358.31,355.00 368.98,355.00 379.66,355.00 390.34,355.00 401.02,355.00 411.69,355.00 422.37,355.00 433.05,355.00 443.73,355.00 454.41,355.00 465.08,355.00 475.76,355.00 486.44,355.00 497.12,355.00 507.80,355.00 518.47,355.00 529.15,355.00 539.83,355.00 550.51,355.00 561.19,355.00 571.86,355.00 582.54,355.00 593.22,355.00 603.90,355.00 614.58,355.00 625.25,355.00 635.93,355.00 646.61,355.00 657.29,355.00 667.97,355.00 678.64,355.00 689.32,355.00 700.00,355.00"/>
<rect x="712" y="42" width="12" height="12" fill="#1f77b4"/>
<text class="label" x="728" y="52">getSlot</text>
<rect x="712" y="60" width="12" height="12" fill="#ff7f0e"/>
<text class="label" x="728" y="70">getBlock</text>
<rect x="712" y="78" width="12" height="12" fill="#2ca02c"/>
<text class="label" x="728" y="88">getHealth</text>

</svg>
