<svg xmlns="http://www.w3.org/2000/svg" viewBox="0 0 900 420" font-family="Arial, sans-serif" font-size="11">
<title>每方法 CPU 归因</title>
<style>
  .axis { stroke: #888; stroke-width: 1; }
  .gridline { stroke: #ddd; stroke-width: 0.5; }
  .label { fill: #333; }
  .title { font-size: 14px; font-weight: bold; fill: #222; }
</style>
<text class="title" x="450.0" y="22" text-anchor="middle">每方法 CPU 归因</text>
<rect x="70" y="40" width="630" height="330" fill="#fafafa" stroke="#ccc"/>

<line class="gridline" x1="70.0" y1="40" x2="70.0" y2="370"/>
<text class="label" x="70.0" y="384" text-anchor="middle">1700000000</text>
<line class="gridline" x1="196.0" y1="40" x2="196.0" y2="370"/>
<text class="label" x="196.0" y="384" text-anchor="middle">1700000011</text>
<line class="gridline" x1="322.0" y1="40" x2="322.0" y2="370"/>
<text class="label" x="322.0" y="384" text-anchor="middle">1700000023</text>
<line class="gridline" x1="448.0" y1="40" x2="448.0" y2="370"/>
<text class="label" x="448.0" y="384" text-anchor="middle">1700000035</text>
<line class="gridline" x1="574.0" y1="40" x2="574.0" y2="370"/>
<text class="label" x="574.0" y="384" text-anchor="middle">1700000047</text>
<line class="gridline" x1="700.0" y1="40" x2="700.0" y2="370"/>
<text class="label" x="700.0" y="384" text-anchor="middle">1700000059</text>
<line class="gridline" x1="70" y1="370.0" x2="700" y2="370.0"/>
<text class="label" x="65" y="373.0" text-anchor="end">0.0</text>
<line class="gridline" x1="70" y1="304.0" x2="700" y2="304.0"/>
<text class="label" x="65" y="307.0" text-anchor="end">13.2</text>
<line class="gridline" x1="70" y1="238.0" x2="700" y2="238.0"/>
<text class="label" x="65" y="241.0" text-anchor="end">26.4</text>
<line class="gridline" x1="70" y1="172.0" x2="700" y2="172.0"/>
<text class="label" x="65" y="175.0" text-anchor="end">39.6</text>
<line class="gridline" x1="70" y1="106.0" x2="700" y2="106.0"/>
<text class="label" x="65" y="109.0" text-anchor="end">52.8</text>
<line class="gridline" x1="70" y1="40.0" x2="700" y2="40.0"/>
<text class="label" x="65" y="43.0" text-anchor="end">66.0</text>
<text class="label" x="385.0" y="410" text-anchor="middle">time (epoch s)</text>
<text class="label" x="15" y="205.0" text-anchor="middle" transform="rotate(-90 15 205.0)">CPU% (attributed)</text>

<polygon fill="#1f77b4" fill-opacity="0.85" stroke="#1f77b4" stroke-width="0.5" points="70.00,210.00 80.68,210.00 91.36,210.00 102.03,210.00 112.71,210.00 123.39,210.00 134.07,210.00 144.75,210.00 155.42,210.00 166.10,210.00 176.78,210.00 187.46,210.00 198.14,210.00 208.81,210.00 219.49,210.00 230.17,210.00 240.85,210.00 251.53,210.00 262.20,210.00 272.88,210.00 283.56,210.00 294.24,210.00 304.92,210.00 315.59,210.00 326.27,210.00 336.95,210.00 347.63,210.00 358.31,210.00 368.98,210.00 379.66,210.00 390.34,130.00 401.02,210.00 411.69,210.00 422.37,210.00 433.05,210.00 443.73,210.00 454.41,210.00 465.08,210.00 475.76,210.00 486.44,210.00 497.12,210.00 507.80,210.00 518.47,210.00 529.15,210.00 539.83,210.00 550.51,210.00 561.19,210.00 571.86,210.00 582.54,210.00 593.22,210.00 603.90,210.00 614.58,210.00 625.25,210.00 635.93,210.00 646.61,210.00 657.29,210.00 667.97,210.00 678.64,210.00 689.32,210.00 700.00,210.00 700.00,370.00 689.32,370.00 678.64,370.00 667.97,370.00 657.29,370.00 646.61,370.00 635.93,370.00 625.25,370.00 614.58,370.00 603.90,370.00 593.22,370.00 582.54,370.00 571.86,370.00 561.19,370.00 550.51,370.00 539.83,370.00 529.15,370.00 518.47,370.00 507.80,370.00 497.12,370.00 486.44,370.00 475.76,370.00 465.08,370.00 454.41,370.00 443.73,370.00 433.05,370.00 422.37,370.00 411.69,370.00 401.02,370.00 390.34,370.00 379.66,370.00 368.98,370.00 358.31,370.00 347.63,370.00 336.95,370.00 326.27,370.00 315.59,370.00 304.92,370.00 294.24,370.00 283.56,370.00 272.88,370.00 262.20,370.00 251.53,370.00 240.85,370.00 230.17,370.00 219.49,370.00 208.81,370.00 198.14,370.00 187.46,370.00 176.78,370.00 166.10,370.00 155.42,370.00 144.75,370.00 134.07,370.00 123.39,370.00 112.71,370.00 102.03,370.00 91.36,370.00 80.68,370.00 70.00,370.00"/>
<polygon fill="#ff7f0e" fill-opacity="0.85" stroke="#ff7f0e" stroke-width="0.5" points="70.00,178.00 80.68,178.00 91.36,178.00 102.03,178.00 112.71,178.00 123.39,178.00 134.07,178.00 144.75,178.00 155.42,178.00 166.10,178.00 176.78,178.00 187.46,178.00 198.14,178.00 208.81,178.00 219.49,178.00 230.17,178.00 240.85,178.00 251.53,178.00 262.20,178.00 272.88,178.00 283.56,178.00 294.24,178.00 304.92,178.00 315.59,178.00 326.27,178.00 336.95,178.00 347.63,178.00 358.31,178.00 368.98,178.00 379.66,178.00 390.34,82.00 401.02,178.00 411.69,178.00 422.37,178.00 433.05,178.00 443.73,178.00 454.41,178.00 465.08,178.00 475.76,178.00 486.44,178.00 497.12,178.00 507.80,178.00 518.47,178.00 529.15,178.00 539.83,178.00 550.51,178.00 561.19,178.00 571.86,178.00 582.54,178.00 593.22,178.00 603.90,178.00 614.58,178.00 625.25,178.00 635.93,178.00 646.61,178.00 657.29,178.00 667.97,178.00 678.64,178.00 689.32,178.00 700.00,178.00 700.00,210.00 689.32,210.00 678.64,210.00 667.97,210.00 657.29,210.00 646.61,210.00 635.93,210.00 625.25,210.00 614.58,210.00 603.90,210.00 593.22,210.00 582.54,210.00 571.86,210.00 561.19,210.00 550.51,210.00 539.83,210.00 529.15,210.00 518.47,210.00 507.80,210.00 497.12,210.00 486.44,210.00 475.76,210.00 465.08,210.00 454.41,210.00 443.73,210.00 433.05,210.00 422.37,210.00 411.69,210.00 401.02,210.00 390.34,130.00 379.66,210.00 368.98,210.00 358.31,210.00 347.63,210.00 336.95,210.00 326.27,210.00 315.59,210.00 304.92,210.00 294.24,210.00 283.56,210.00 272.88,210.00 262.20,210.00 251.53,210.00 240.85,210.00 230.17,210.00 219.49,210.00 208.81,210.00 198.14,210.00 187.46,210.00 176.78,210.00 166.10,210.00 155.42,210.00 144.75,210.00 134.07,210.00 123.39,210.00 112.71,210.00 102.03,210.00 91.36,210.00 80.68,210.00 70.00,210.00"/>
<polygon fill="#2ca02c" fill-opacity="0.85" stroke="#2ca02c" stroke-width="0.5" points="70.00,170.00 80.68,170.00 91.36,170.00 102.03,170.00 112.71,170.00 123.39,170.00 134.07,170.00 144.75,170.00 155.42,170.00 166.10,170.00 176.78,170.00 187.46,170.00 198.14,170.00 208.81,170.00 219.49,170.00 230.17,170.00 240.85,170.00 251.53,170.00 262.20,170.00 272.88,170.00 283.56,170.00 294.24,170.00 304.92,170.00 315.59,170.00 326.27,170.00 336.95,170.00 347.63,170.00 358.31,170.00 368.98,170.00 379.66,170.00 390.34,70.00 401.02,170.00 411.69,170.00 422.37,170.00 433.05,170.00 443.73,170.00 454.41,170.00 465.08,170.00 475.76,170.00 486.44,170.00 497.12,170.00 507.80,170.00 518.47,170.00 529.15,170.00 539.83,170.00 550.51,170.00 561.19,170.00 571.86,170.00 582.54,170.00 593.22,170.00 603.90,170.00 614.58,170.00 625.25,170.00 635.93,170.00 646.61,170.00 657.29,170.00 667.97,170.00 678.64,170.00 689.32,170.00 700.00,170.00 700.00,178.00 689.32,178.00 678.64,178.00 667.97,178.00 657.29,178.00 646.61,178.00 635.93,178.00 625.25,178.00 614.58,178.00 603.90,178.00 593.22,178.00 582.54,178.00 571.86,178.00 561.19,178.00 550.51,178.00 539.83,178.00 529.15,178.00 518.47,178.00 507.80,178.00 497.12,178.00 486.44,178.00 475.76,178.00 465.08,178.00 454.41,178.00 443.73,178.00 433.05,178.00 422.37,178.00 411.69,178.00 401.02,178.00 390.34,82.00 379.66,178.00 368.98,178.00 358.31,178.00 347.63,178.00 336.95,178.00 326.27,178.00 315.59,178.00 304.92,178.00 294.24,178.00 283.56,178.00 272.88,178.00 262.20,178.00 251.53,178.00 240.85,178.00 230.17,178.00 219.49,178.00 208.81,178.00 198.14,178.00 187.46,178.00 176.78,178.00 166.10,178.00 155.42,178.00 144.75,178.00 134.07,178.00 123.39,178.00 112.71,178.00 102.03,178.00 91.36,178.00 80.68,178.00 70.00,178.00"/>
<rect x="712" y="42" width="12" height="12" fill="#1f77b4"/>
<text class="label" x="728" y="52">getSlot</text>
<rect x="712" y="60" width="12" height="12" fill="#ff7f0e"/>
<text class="label" x="728" y="70">getBlock</text>
<rect x="712" y="78" width="12" height="12" fill="#2ca02c"/>
<text class="label" x="728" y="88">getHealth</text>

</svg>
