<svg xmlns="http://www.w3.org/2000/svg" viewBox="0 0 900 420" font-family="Arial, sans-serif" font-size="11">
<title>Per-Method p99 Latency</title>
<style>
  .axis { stroke: #888; stroke-width: 1; }
  .gridline { stroke: #ddd; stroke-width: 0.5; }
  .label { fill: #333; }
  .title { font-size: 14px; font-weight: bold; fill: #222; }
</style>
<text class="title" x="450.0" y="22" text-anchor="middle">Per-Method p99 Latency</text>
<rect x="70" y="40" width="630" height="330" fill="#fafafa" stroke="#ccc"/>

<line class="gridline" x1="70.0" y1="40" x2="70.0" y2="370"/>
<text class="label" x="70.0" y="384" text-anchor="middle">1779960436</text>
<line class="gridline" x1="196.0" y1="40" x2="196.0" y2="370"/>
<text class="label" x="196.0" y="384" text-anchor="middle">1779960483</text>
<line class="gridline" x1="322.0" y1="40" x2="322.0" y2="370"/>
<text class="label" x="322.0" y="384" text-anchor="middle">1779960530</text>
<line class="gridline" x1="448.0" y1="40" x2="448.0" y2="370"/>
<text class="label" x="448.0" y="384" text-anchor="middle">1779960577</text>
<line class="gridline" x1="574.0" y1="40" x2="574.0" y2="370"/>
<text class="label" x="574.0" y="384" text-anchor="middle">1779960624</text>
<line class="gridline" x1="700.0" y1="40" x2="700.0" y2="370"/>
<text class="label" x="700.0" y="384" text-anchor="middle">1779960672</text>
<line class="gridline" x1="70" y1="370.0" x2="700" y2="370.0"/>
<text class="label" x="65" y="373.0" text-anchor="end">0.0</text>
<line class="gridline" x1="70" y1="304.0" x2="700" y2="304.0"/>
<text class="label" x="65" y="307.0" text-anchor="end">2.8</text>
<line class="gridline" x1="70" y1="238.0" x2="700" y2="238.0"/>
<text class="label" x="65" y="241.0" text-anchor="end">5.6</text>
<line class="gridline" x1="70" y1="172.0" x2="700" y2="172.0"/>
<text class="label" x="65" y="175.0" text-anchor="end">8.4</text>
<line class="gridline" x1="70" y1="106.0" x2="700" y2="106.0"/>
<text class="label" x="65" y="109.0" text-anchor="end">11.2</text>
<line class="gridline" x1="70" y1="40.0" x2="700" y2="40.0"/>
<text class="label" x="65" y="43.0" text-anchor="end">14.0</text>
<text class="label" x="385.0" y="410" text-anchor="middle">time (epoch s)</text>
<text class="label" x="15" y="205.0" text-anchor="middle" transform="rotate(-90 15 205.0)">p99 latency (ms)</text>

<polyline fill="none" stroke="#1f77b4" stroke-width="1.5" points="70.00,299.13 152.75,322.76 155.42,322.76 158.09,322.76 160.76,322.76 163.43,302.20 166.10,322.76 168.77,322.76 171.44,346.38 174.11,322.76 176.78,325.12 179.45,346.38 539.83,258.98 542.50,322.76 545.17,322.76 547.84,322.76 550.51,322.76 553.18,322.76 555.85,322.76 558.52,322.76 561.19,304.09 563.86,322.76 566.53,322.76 569.19,322.76 571.86,322.76 574.53,322.76 577.20,302.68 579.87,322.76 582.54,322.76 585.21,322.76 587.88,326.77 590.55,302.91 593.22,303.15 595.89,322.76 598.56,322.76 601.23,322.76 603.90,322.76 606.57,322.76 609.24,322.76 611.91,322.76 614.58,304.57 617.25,322.76 619.92,322.76 622.58,322.76 625.25,322.76 627.92,302.91 630.59,322.76 633.26,304.33 635.93,322.76 638.60,322.76 641.27,322.76 643.94,302.20 646.61,306.22 649.28,299.13 651.95,322.76 654.62,322.76 657.29,304.33 659.96,322.76 662.63,322.76 665.30,322.76 667.97,322.76 670.64,303.39 673.31,305.04 675.97,322.76 678.64,299.13 681.31,322.76 683.98,322.76 686.65,322.76 689.32,322.76 691.99,322.76 694.66,322.76 697.33,327.01 700.00,322.76"/>
<polyline fill="none" stroke="#ff7f0e" stroke-width="1.5" points="152.75,347.80 155.42,348.27 158.09,350.16 160.76,370.00 163.43,370.00 166.10,370.00 168.77,370.00 171.44,370.00 174.11,370.00 176.78,370.00 179.45,370.00 539.83,322.76 542.50,322.76 545.17,322.76 547.84,322.76 550.51,322.76 553.18,322.76 555.85,322.76 558.52,322.76 561.19,322.76 563.86,322.76 566.53,322.76 569.19,322.76 571.86,322.76 574.53,322.76 577.20,322.76 579.87,322.76 582.54,322.76 585.21,322.76 587.88,322.76 590.55,322.76 593.22,322.76 595.89,322.76 598.56,299.13 601.23,322.76 603.90,322.76 606.57,322.76 609.24,302.91 611.91,304.09 614.58,302.68 617.25,322.76 619.92,322.76 622.58,322.76 625.25,322.76 627.92,305.28 630.59,322.76 633.26,322.76 635.93,322.76 638.60,322.76 641.27,304.80 643.94,322.76 646.61,322.76 649.28,322.76 651.95,322.76 654.62,322.76 657.29,303.15 659.96,326.30 662.63,322.76 665.30,322.76 667.97,322.76 670.64,299.13 673.31,322.76 675.97,322.76 678.64,322.76 681.31,322.76 683.98,322.76 686.65,303.86 689.32,322.76 691.99,322.76 694.66,322.76 697.33,322.76 700.00,322.76"/>
<polyline fill="none" stroke="#2ca02c" stroke-width="1.5" points="152.75,348.27 155.42,370.00 158.09,348.03 160.76,370.00 163.43,370.00 166.10,370.00 168.77,370.00 171.44,370.00 174.11,370.00 176.78,370.00 179.45,370.00 539.83,302.91 542.50,322.76 545.17,322.76 547.84,322.76 550.51,322.76 553.18,322.76 555.85,322.76 558.52,322.76 561.19,322.76 563.86,303.39 566.53,302.68 569.19,322.76 571.86,322.76 574.53,303.39 577.20,322.76 579.87,322.76 582.54,322.76 585.21,322.76 587.88,322.76 590.55,322.76 593.22,322.76 595.89,322.76 598.56,322.76 601.23,322.76 603.90,322.76 606.57,322.76 609.24,322.76 611.91,302.91 614.58,322.76 617.25,322.76 619.92,322.76 622.58,322.76 625.25,322.76 627.92,322.76 630.59,322.76 633.26,322.76 635.93,322.76 638.60,322.76 641.27,302.91 643.94,322.76 646.61,303.62 649.28,322.76 651.95,322.76 654.62,322.76 657.29,303.39 659.96,322.76 662.63,322.76 665.30,322.76 667.97,302.91 670.64,322.76 673.31,322.76 675.97,322.76 678.64,304.09 681.31,322.76 683.98,322.76 686.65,322.76 689.32,322.76 691.99,322.76 694.66,303.86 697.33,322.76 700.00,323.94"/>
<polyline fill="none" stroke="#d62728" stroke-width="1.5" points="152.75,86.54 155.42,110.16 158.09,110.16 160.76,110.16 163.43,110.16 166.10,110.16 168.77,110.16 171.44,89.13 174.11,110.16 176.78,110.16 179.45,110.16 539.83,110.16 542.50,110.16 545.17,110.16 547.84,110.16 550.51,110.16 553.18,89.84 555.85,86.54 558.52,90.31 561.19,110.16 563.86,110.16 566.53,110.16 569.19,110.16 571.86,91.26 574.53,110.16 577.20,110.16 579.87,110.16 582.54,110.16 585.21,110.16 587.88,110.16 590.55,92.44 593.22,110.16 595.89,110.16 598.56,110.16 601.23,110.16 603.90,110.16 606.57,110.16 609.24,86.54 611.91,110.16 614.58,110.16 617.25,110.16 619.92,92.20 622.58,70.00 625.25,110.16 627.92,110.16 630.59,110.16 633.26,110.16 635.93,110.16 638.60,90.31 641.27,110.16 643.94,110.16 646.61,110.16 649.28,110.16 651.95,110.16 654.62,110.16 657.29,110.16 659.96,110.16 662.63,110.16 665.30,110.16 667.97,110.16 670.64,110.16 673.31,110.16 675.97,110.16 678.64,110.16 681.31,110.16 683.98,110.16 686.65,89.61 689.32,91.26 691.99,110.16 694.66,92.68 697.33,110.16 700.00,110.16"/>
<polyline fill="none" stroke="#9467bd" stroke-width="1.5" points="152.75,347.32 155.42,348.03 158.09,370.00 160.76,370.00 163.43,370.00 166.10,370.00 168.77,370.00 171.44,370.00 174.11,370.00 176.78,346.38 179.45,370.00 539.83,302.68 542.50,325.35 545.17,322.76 547.84,322.76 550.51,322.76 553.18,322.76 555.85,322.76 558.52,322.76 561.19,322.76 563.86,322.76 566.53,303.86 569.19,322.76 571.86,322.76 574.53,322.76 577.20,322.76 579.87,322.76 582.54,322.76 585.21,322.76 587.88,322.76 590.55,302.91 593.22,322.76 595.89,322.76 598.56,322.76 601.23,322.76 603.90,322.76 606.57,322.76 609.24,322.76 611.91,322.76 614.58,322.76 617.25,322.76 619.92,322.76 622.58,322.76 625.25,322.76 627.92,303.39 630.59,303.39 633.26,322.76 635.93,303.15 638.60,322.76 641.27,322.76 643.94,322.76 646.61,322.76 649.28,322.76 651.95,322.76 654.62,322.76 657.29,299.13 659.96,322.76 662.63,322.76 665.30,299.13 667.97,322.76 670.64,322.76 673.31,306.46 675.97,322.76 678.64,322.76 681.31,322.76 683.98,322.76 686.65,322.76 689.32,322.76 691.99,322.76 694.66,299.13 697.33,322.76 700.00,300.55"/>
<rect x="712" y="42" width="12" height="12" fill="#1f77b4"/>
<text class="label" x="728" y="52">getBalance</text>
<rect x="712" y="60" width="12" height="12" fill="#ff7f0e"/>
<text class="label" x="728" y="70">getAccountInfo</text>
<rect x="712" y="78" width="12" height="12" fill="#2ca02c"/>
<text class="label" x="728" y="88">getTokenAccountBalance</text>
<rect x="712" y="96" width="12" height="12" fill="#d62728"/>
<text class="label" x="728" y="106">getLatestBlockhash</text>
<rect x="712" y="114" width="12" height="12" fill="#9467bd"/>
<text class="label" x="728" y="124">getBlockHeight</text>

</svg>
