<svg xmlns="http://www.w3.org/2000/svg" viewBox="0 0 900 420" font-family="Arial, sans-serif" font-size="11">
<title>Per-Method CPU Attribution</title>
<style>
  .axis { stroke: #888; stroke-width: 1; }
  .gridline { stroke: #ddd; stroke-width: 0.5; }
  .label { fill: #333; }
  .title { font-size: 14px; font-weight: bold; fill: #222; }
</style>
<text class="title" x="450.0" y="22" text-anchor="middle">Per-Method CPU Attribution</text>
<rect x="70" y="40" width="630" height="330" fill="#fafafa" stroke="#ccc"/>

<line class="gridline" x1="70.0" y1="40" x2="70.0" y2="370"/>
<text class="label" x="70.0" y="384" text-anchor="middle">1779960436</text>
<line class="gridline" x1="196.0" y1="40" x2="196.0" y2="370"/>
<text class="label" x="196.0" y="384" text-anchor="middle">1779960483</text>
<line class="gridline" x1="322.0" y1="40" x2="322.0" y2="370"/>
<text class="label" x="322.0" y="384" text-anchor="middle">1779960530</text>
<line class="gridline" x1="448.0" y1="40" x2="448.0" y2="370"/>
<text class="label" x="448.0" y="384" text-anchor="middle">1779960577</text>
<line class="gridline" x1="574.0" y1="40" x2="574.0" y2="370"/>
<text class="label" x="574.0" y="384" text-anchor="middle">1779960624</text>
<line class="gridline" x1="700.0" y1="40" x2="700.0" y2="370"/>
<text class="label" x="700.0" y="384" text-anchor="middle">1779960672</text>
<line class="gridline" x1="70" y1="370.0" x2="700" y2="370.0"/>
<text class="label" x="65" y="373.0" text-anchor="end">0.0</text>
<line class="gridline" x1="70" y1="304.0" x2="700" y2="304.0"/>
<text class="label" x="65" y="307.0" text-anchor="end">11.0</text>
<line class="gridline" x1="70" y1="238.0" x2="700" y2="238.0"/>
<text class="label" x="65" y="241.0" text-anchor="end">22.0</text>
<line class="gridline" x1="70" y1="172.0" x2="700" y2="172.0"/>
<text class="label" x="65" y="175.0" text-anchor="end">33.0</text>
<line class="gridline" x1="70" y1="106.0" x2="700" y2="106.0"/>
<text class="label" x="65" y="109.0" text-anchor="end">44.0</text>
<line class="gridline" x1="70" y1="40.0" x2="700" y2="40.0"/>
<text class="label" x="65" y="43.0" text-anchor="end">55.0</text>
<text class="label" x="385.0" y="410" text-anchor="middle">time (epoch s)</text>
<text class="label" x="15" y="205.0" text-anchor="middle" transform="rotate(-90 15 205.0)">CPU% (attributed)</text>

<polygon fill="#1f77b4" fill-opacity="0.85" stroke="#1f77b4" stroke-width="0.5" points="70.00,70.00 152.75,313.75 155.42,311.07 158.09,332.50 160.76,288.75 163.43,282.50 166.10,305.71 168.77,295.00 171.44,345.00 174.11,307.50 176.78,311.07 179.45,332.50 539.83,310.00 542.50,295.00 545.17,326.25 547.84,310.62 550.51,307.84 553.18,292.68 555.85,323.12 558.52,320.00 561.19,308.89 563.86,301.00 566.53,323.12 569.19,288.75 571.86,307.74 574.53,278.82 577.20,320.00 579.87,320.00 582.54,307.74 585.21,322.94 587.88,313.75 590.55,316.88 593.22,314.90 595.89,304.55 598.56,320.00 601.23,329.38 603.90,273.12 606.57,327.14 609.24,316.88 611.91,313.75 614.58,295.00 617.25,300.36 619.92,304.38 622.58,304.38 625.25,304.38 627.92,322.78 630.59,313.00 633.26,298.12 635.93,313.75 638.60,302.08 641.27,317.06 643.94,326.25 646.61,273.12 649.28,316.53 651.95,316.73 654.62,310.62 657.29,298.12 659.96,313.75 662.63,321.79 665.30,313.75 667.97,304.38 670.64,310.62 673.31,300.36 675.97,301.25 678.64,307.50 681.31,298.12 683.98,308.39 686.65,301.25 689.32,310.62 691.99,326.25 694.66,307.27 697.33,311.84 700.00,295.00 700.00,370.00 697.33,370.00 694.66,370.00 691.99,370.00 689.32,370.00 686.65,370.00 683.98,370.00 681.31,370.00 678.64,370.00 675.97,370.00 673.31,370.00 670.64,370.00 667.97,370.00 665.30,370.00 662.63,370.00 659.96,370.00 657.29,370.00 654.62,370.00 651.95,370.00 649.28,370.00 646.61,370.00 643.94,370.00 641.27,370.00 638.60,370.00 635.93,370.00 633.26,370.00 630.59,370.00 627.92,370.00 625.25,370.00 622.58,370.00 619.92,370.00 617.25,370.00 614.58,370.00 611.91,370.00 609.24,370.00 606.57,370.00 603.90,370.00 601.23,370.00 598.56,370.00 595.89,370.00 593.22,370.00 590.55,370.00 587.88,370.00 585.21,370.00 582.54,370.00 579.87,370.00 577.20,370.00 574.53,370.00 571.86,370.00 569.19,370.00 566.53,370.00 563.86,370.00 561.19,370.00 558.52,370.00 555.85,370.00 553.18,370.00 550.51,370.00 547.84,370.00 545.17,370.00 542.50,370.00 539.83,370.00 179.45,370.00 176.78,370.00 174.11,370.00 171.44,370.00 168.77,370.00 166.10,370.00 163.43,370.00 160.76,370.00 158.09,370.00 155.42,370.00 152.75,370.00 70.00,370.00"/>
<polygon fill="#ff7f0e" fill-opacity="0.85" stroke="#ff7f0e" stroke-width="0.5" points="70.00,70.00 152.75,248.12 155.42,262.86 158.09,226.25 160.76,226.25 163.43,232.50 166.10,230.71 168.77,213.75 171.44,257.50 174.11,232.50 176.78,284.29 179.45,257.50 539.83,268.75 542.50,257.50 545.17,263.75 547.84,254.38 550.51,253.78 553.18,233.92 555.85,238.75 558.52,257.50 561.19,245.00 563.86,250.00 566.53,251.25 569.19,238.75 571.86,228.49 574.53,211.18 577.20,279.38 579.87,273.12 582.54,251.13 585.21,272.94 587.88,245.00 590.55,260.62 593.22,247.55 595.89,233.64 598.56,248.12 601.23,273.12 603.90,235.62 606.57,265.54 609.24,263.75 611.91,245.00 614.58,245.00 617.25,246.79 619.92,254.38 622.58,238.75 625.25,216.88 627.92,247.78 630.59,244.00 633.26,241.88 635.93,254.38 638.60,259.62 641.27,243.53 643.94,266.88 646.61,226.25 649.28,266.04 651.95,252.24 654.62,248.12 657.29,241.88 659.96,263.75 662.63,230.71 665.30,254.38 667.97,210.62 670.64,245.00 673.31,249.46 675.97,251.25 678.64,238.75 681.31,248.12 683.98,257.50 686.65,235.63 689.32,266.88 691.99,251.25 694.66,252.73 697.33,241.43 700.00,248.12 700.00,295.00 697.33,311.84 694.66,307.27 691.99,326.25 689.32,310.62 686.65,301.25 683.98,308.39 681.31,298.12 678.64,307.50 675.97,301.25 673.31,300.36 670.64,310.62 667.97,304.38 665.30,313.75 662.63,321.79 659.96,313.75 657.29,298.12 654.62,310.62 651.95,316.73 649.28,316.53 646.61,273.12 643.94,326.25 641.27,317.06 638.60,302.08 635.93,313.75 633.26,298.12 630.59,313.00 627.92,322.78 625.25,304.38 622.58,304.38 619.92,304.38 617.25,300.36 614.58,295.00 611.91,313.75 609.24,316.88 606.57,327.14 603.90,273.12 601.23,329.38 598.56,320.00 595.89,304.55 593.22,314.90 590.55,316.88 587.88,313.75 585.21,322.94 582.54,307.74 579.87,320.00 577.20,320.00 574.53,278.82 571.86,307.74 569.19,288.75 566.53,323.12 563.86,301.00 561.19,308.89 558.52,320.00 555.85,323.12 553.18,292.68 550.51,307.84 547.84,310.62 545.17,326.25 542.50,295.00 539.83,310.00 179.45,332.50 176.78,311.07 174.11,307.50 171.44,345.00 168.77,295.00 166.10,305.71 163.43,282.50 160.76,288.75 158.09,332.50 155.42,311.07 152.75,313.75 70.00,70.00"/>
<polygon fill="#2ca02c" fill-opacity="0.85" stroke="#2ca02c" stroke-width="0.5" points="70.00,70.00 152.75,163.75 155.42,187.86 158.09,176.25 160.76,170.00 163.43,176.25 166.10,171.79 168.77,176.25 171.44,195.00 174.11,170.00 176.78,230.71 179.45,201.25 539.83,205.00 542.50,188.75 545.17,213.75 547.84,188.75 550.51,207.84 553.18,168.97 555.85,182.50 558.52,188.75 561.19,197.78 563.86,193.00 566.53,201.25 569.19,166.88 571.86,174.72 574.53,155.29 577.20,216.88 579.87,207.50 582.54,180.38 585.21,220.00 587.88,188.75 590.55,204.38 593.22,180.20 595.89,184.55 598.56,188.75 601.23,185.63 603.90,160.63 606.57,214.64 609.24,216.88 611.91,191.88 614.58,179.38 617.25,187.86 619.92,198.13 622.58,188.75 625.25,163.75 627.92,172.78 630.59,175.00 633.26,195.00 635.93,195.00 638.60,194.53 641.27,193.53 643.94,207.50 646.61,163.75 649.28,197.72 651.95,187.76 654.62,176.25 657.29,182.50 659.96,210.62 662.63,182.50 665.30,191.88 667.97,157.50 670.64,195.00 673.31,206.61 675.97,195.00 678.64,170.00 681.31,179.38 683.98,177.14 686.65,170.00 689.32,188.75 691.99,185.62 694.66,195.45 697.33,198.57 700.00,191.88 700.00,248.12 697.33,241.43 694.66,252.73 691.99,251.25 689.32,266.88 686.65,235.63 683.98,257.50 681.31,248.12 678.64,238.75 675.97,251.25 673.31,249.46 670.64,245.00 667.97,210.62 665.30,254.38 662.63,230.71 659.96,263.75 657.29,241.88 654.62,248.12 651.95,252.24 649.28,266.04 646.61,226.25 643.94,266.88 641.27,243.53 638.60,259.62 635.93,254.38 633.26,241.88 630.59,244.00 627.92,247.78 625.25,216.88 622.58,238.75 619.92,254.38 617.25,246.79 614.58,245.00 611.91,245.00 609.24,263.75 606.57,265.54 603.90,235.62 601.23,273.12 598.56,248.12 595.89,233.64 593.22,247.55 590.55,260.62 587.88,245.00 585.21,272.94 582.54,251.13 579.87,273.12 577.20,279.38 574.53,211.18 571.86,228.49 569.19,238.75 566.53,251.25 563.86,250.00 561.19,245.00 558.52,257.50 555.85,238.75 553.18,233.92 550.51,253.78 547.84,254.38 545.17,263.75 542.50,257.50 539.83,268.75 179.45,257.50 176.78,284.29 174.11,232.50 171.44,257.50 168.77,213.75 166.10,230.71 163.43,232.50 160.76,226.25 158.09,226.25 155.42,262.86 152.75,248.12 70.00,70.00"/>
<polygon fill="#d62728" fill-opacity="0.85" stroke="#d62728" stroke-width="0.5" points="70.00,70.00 152.75,116.88 155.42,112.86 158.09,101.25 160.76,120.00 163.43,120.00 166.10,107.50 168.77,120.00 171.44,120.00 174.11,107.50 176.78,166.43 179.45,163.75 539.83,130.00 542.50,107.50 545.17,132.50 547.84,135.63 550.51,148.38 553.18,122.58 555.85,132.50 558.52,135.63 561.19,142.22 563.86,133.00 566.53,135.63 569.19,116.88 571.86,115.28 574.53,117.06 577.20,151.25 579.87,141.88 582.54,120.94 585.21,140.59 587.88,135.63 590.55,123.13 593.22,122.04 595.89,138.18 598.56,120.00 601.23,129.38 603.90,120.00 606.57,142.32 609.24,132.50 611.91,138.75 614.58,145.00 617.25,126.25 619.92,120.00 622.58,138.75 625.25,120.00 627.92,122.78 630.59,127.00 633.26,120.00 635.93,126.25 638.60,146.42 641.27,140.59 643.94,132.50 646.61,120.00 649.28,132.38 651.95,112.06 654.62,129.38 657.29,120.00 659.96,141.88 662.63,118.21 665.30,135.63 667.97,120.00 670.64,157.50 673.31,155.71 675.97,138.75 678.64,116.88 681.31,116.88 683.98,126.25 686.65,126.25 689.32,123.13 691.99,132.50 694.66,121.82 697.33,118.98 700.00,135.63 700.00,191.88 697.33,198.57 694.66,195.45 691.99,185.62 689.32,188.75 686.65,170.00 683.98,177.14 681.31,179.38 678.64,170.00 675.97,195.00 673.31,206.61 670.64,195.00 667.97,157.50 665.30,191.88 662.63,182.50 659.96,210.62 657.29,182.50 654.62,176.25 651.95,187.76 649.28,197.72 646.61,163.75 643.94,207.50 641.27,193.53 638.60,194.53 635.93,195.00 633.26,195.00 630.59,175.00 627.92,172.78 625.25,163.75 622.58,188.75 619.92,198.13 617.25,187.86 614.58,179.38 611.91,191.88 609.24,216.88 606.57,214.64 603.90,160.63 601.23,185.63 598.56,188.75 595.89,184.55 593.22,180.20 590.55,204.38 587.88,188.75 585.21,220.00 582.54,180.38 579.87,207.50 577.20,216.88 574.53,155.29 571.86,174.72 569.19,166.88 566.53,201.25 563.86,193.00 561.19,197.78 558.52,188.75 555.85,182.50 553.18,168.97 550.51,207.84 547.84,188.75 545.17,213.75 542.50,188.75 539.83,205.00 179.45,201.25 176.78,230.71 174.11,170.00 171.44,195.00 168.77,176.25 166.10,171.79 163.43,176.25 160.76,170.00 158.09,176.25 155.42,187.86 152.75,163.75 70.00,70.00"/>
<polygon fill="#9467bd" fill-opacity="0.85" stroke="#9467bd" stroke-width="0.5" points="70.00,70.00 152.75,70.00 155.42,70.00 158.09,70.00 160.76,70.00 163.43,70.00 166.10,70.00 168.77,70.00 171.44,70.00 174.11,70.00 176.78,70.00 179.45,70.00 539.83,70.00 542.50,70.00 545.17,70.00 547.84,70.00 550.51,70.00 553.18,70.00 555.85,70.00 558.52,70.00 561.19,70.00 563.86,70.00 566.53,70.00 569.19,70.00 571.86,70.00 574.53,70.00 577.20,70.00 579.87,70.00 582.54,70.00 585.21,70.00 587.88,70.00 590.55,70.00 593.22,70.00 595.89,70.00 598.56,70.00 601.23,70.00 603.90,70.00 606.57,70.00 609.24,70.00 611.91,70.00 614.58,70.00 617.25,70.00 619.92,70.00 622.58,70.00 625.25,70.00 627.92,70.00 630.59,70.00 633.26,70.00 635.93,70.00 638.60,70.00 641.27,70.00 643.94,70.00 646.61,70.00 649.28,70.00 651.95,70.00 654.62,70.00 657.29,70.00 659.96,70.00 662.63,70.00 665.30,70.00 667.97,70.00 670.64,70.00 673.31,70.00 675.97,70.00 678.64,70.00 681.31,70.00 683.98,70.00 686.65,70.00 689.32,70.00 691.99,70.00 694.66,70.00 697.33,70.00 700.00,70.00 700.00,135.63 697.33,118.98 694.66,121.82 691.99,132.50 689.32,123.13 686.65,126.25 683.98,126.25 681.31,116.88 678.64,116.88 675.97,138.75 673.31,155.71 670.64,157.50 667.97,120.00 665.30,135.63 662.63,118.21 659.96,141.88 657.29,120.00 654.62,129.38 651.95,112.06 649.28,132.38 646.61,120.00 643.94,132.50 641.27,140.59 638.60,146.42 635.93,126.25 633.26,120.00 630.59,127.00 627.92,122.78 625.25,120.00 622.58,138.75 619.92,120.00 617.25,126.25 614.58,145.00 611.91,138.75 609.24,132.50 606.57,142.32 603.90,120.00 601.23,129.38 598.56,120.00 595.89,138.18 593.22,122.04 590.55,123.13 587.88,135.63 585.21,140.59 582.54,120.94 579.87,141.88 577.20,151.25 574.53,117.06 571.86,115.28 569.19,116.88 566.53,135.63 563.86,133.00 561.19,142.22 558.52,135.63 555.85,132.50 553.18,122.58 550.51,148.38 547.84,135.63 545.17,132.50 542.50,107.50 539.83,130.00 179.45,163.75 176.78,166.43 174.11,107.50 171.44,120.00 168.77,120.00 166.10,107.50 163.43,120.00 160.76,120.00 158.09,101.25 155.42,112.86 152.75,116.88 70.00,70.00"/>
<rect x="712" y="42" width="12" height="12" fill="#1f77b4"/>
<text class="label" x="728" y="52">getBalance</text>
<rect x="712" y="60" width="12" height="12" fill="#ff7f0e"/>
<text class="label" x="728" y="70">getAccountInfo</text>
<rect x="712" y="78" width="12" height="12" fill="#2ca02c"/>
<text class="label" x="728" y="88">getTokenAccountBalance</text>
<rect x="712" y="96" width="12" height="12" fill="#d62728"/>
<text class="label" x="728" y="106">getLatestBlockhash</text>
<rect x="712" y="114" width="12" height="12" fill="#9467bd"/>
<text class="label" x="728" y="124">getBlockHeight</text>

</svg>
