<svg xmlns="http://www.w3.org/2000/svg" viewBox="0 0 900 420" font-family="Arial, sans-serif" font-size="11">
<title>Per-Method QPS</title>
<style>
  .axis { stroke: #888; stroke-width: 1; }
  .gridline { stroke: #ddd; stroke-width: 0.5; }
  .label { fill: #333; }
  .title { font-size: 14px; font-weight: bold; fill: #222; }
</style>
<text class="title" x="450.0" y="22" text-anchor="middle">Per-Method QPS</text>
<rect x="70" y="40" width="630" height="330" fill="#fafafa" stroke="#ccc"/>

<line class="gridline" x1="70.0" y1="40" x2="70.0" y2="370"/>
<text class="label" x="70.0" y="384" text-anchor="middle">1779960436</text>
<line class="gridline" x1="196.0" y1="40" x2="196.0" y2="370"/>
<text class="label" x="196.0" y="384" text-anchor="middle">1779960483</text>
<line class="gridline" x1="322.0" y1="40" x2="322.0" y2="370"/>
<text class="label" x="322.0" y="384" text-anchor="middle">1779960530</text>
<line class="gridline" x1="448.0" y1="40" x2="448.0" y2="370"/>
<text class="label" x="448.0" y="384" text-anchor="middle">1779960577</text>
<line class="gridline" x1="574.0" y1="40" x2="574.0" y2="370"/>
<text class="label" x="574.0" y="384" text-anchor="middle">1779960624</text>
<line class="gridline" x1="700.0" y1="40" x2="700.0" y2="370"/>
<text class="label" x="700.0" y="384" text-anchor="middle">1779960672</text>
<line class="gridline" x1="70" y1="370.0" x2="700" y2="370.0"/>
<text class="label" x="65" y="373.0" text-anchor="end">0.0</text>
<line class="gridline" x1="70" y1="304.0" x2="700" y2="304.0"/>
<text class="label" x="65" y="307.0" text-anchor="end">7.5</text>
<line class="gridline" x1="70" y1="238.0" x2="700" y2="238.0"/>
<text class="label" x="65" y="241.0" text-anchor="end">15.0</text>
<line class="gridline" x1="70" y1="172.0" x2="700" y2="172.0"/>
<text class="label" x="65" y="175.0" text-anchor="end">22.4</text>
<line class="gridline" x1="70" y1="106.0" x2="700" y2="106.0"/>
<text class="label" x="65" y="109.0" text-anchor="end">29.9</text>
<line class="gridline" x1="70" y1="40.0" x2="700" y2="40.0"/>
<text class="label" x="65" y="43.0" text-anchor="end">37.4</text>
<text class="label" x="385.0" y="410" text-anchor="middle">time (epoch s)</text>
<text class="label" x="15" y="205.0" text-anchor="middle" transform="rotate(-90 15 205.0)">QPS</text>

<polyline fill="none" stroke="#1f77b4" stroke-width="1.5" points="70.00,361.18 152.75,317.06 155.42,272.94 158.09,317.06 160.76,255.29 163.43,246.47 166.10,264.12 168.77,264.12 171.44,334.71 174.11,281.76 176.78,272.94 179.45,352.35 539.83,228.82 542.50,158.24 545.17,246.47 547.84,202.35 550.51,167.06 553.18,149.41 555.85,237.65 558.52,228.82 561.19,175.88 563.86,167.06 566.53,237.65 569.19,140.59 571.86,175.88 574.53,96.47 577.20,228.82 579.87,228.82 582.54,175.88 585.21,228.82 587.88,211.18 590.55,220.00 593.22,211.18 595.89,158.24 598.56,228.82 601.23,255.29 603.90,96.47 606.57,228.82 609.24,220.00 611.91,211.18 614.58,158.24 617.25,140.59 619.92,184.71 622.58,184.71 625.25,184.71 627.92,220.00 630.59,202.35 633.26,167.06 635.93,211.18 638.60,158.24 641.27,211.18 643.94,246.47 646.61,96.47 649.28,211.18 651.95,202.35 654.62,202.35 657.29,167.06 659.96,211.18 662.63,211.18 665.30,211.18 667.97,184.71 670.64,202.35 673.31,140.59 675.97,175.88 678.64,193.53 681.31,167.06 683.98,167.06 686.65,175.88 689.32,202.35 691.99,246.47 694.66,167.06 697.33,202.35 700.00,299.41"/>
<polyline fill="none" stroke="#ff7f0e" stroke-width="1.5" points="152.75,308.24 155.42,290.59 158.09,220.00 160.76,281.76 163.43,299.41 166.10,246.47 168.77,255.29 171.44,246.47 174.11,264.12 176.78,325.88 179.45,334.71 539.83,272.94 542.50,264.12 545.17,193.53 547.84,211.18 550.51,193.53 553.18,202.35 555.85,131.76 558.52,193.53 561.19,167.06 563.86,220.00 566.53,167.06 569.19,228.82 571.86,122.94 574.53,167.06 577.20,255.29 579.87,237.65 582.54,193.53 585.21,220.00 587.88,175.88 590.55,211.18 593.22,175.88 595.89,140.59 598.56,167.06 601.23,211.18 603.90,264.12 606.57,167.06 609.24,220.00 611.91,175.88 614.58,228.82 617.25,193.53 619.92,228.82 622.58,184.71 625.25,122.94 627.92,131.76 630.59,167.06 633.26,211.18 635.93,202.35 638.60,237.65 641.27,149.41 643.94,202.35 646.61,237.65 649.28,220.00 651.95,167.06 654.62,193.53 657.29,211.18 659.96,228.82 662.63,70.00 665.30,202.35 667.97,105.29 670.64,184.71 673.31,202.35 675.97,228.82 678.64,175.88 681.31,228.82 683.98,202.35 686.65,184.71 689.32,246.47 691.99,158.24 694.66,193.53 697.33,167.06 700.00,325.88"/>
<polyline fill="none" stroke="#2ca02c" stroke-width="1.5" points="152.75,290.59 155.42,246.47 158.09,299.41 160.76,290.59 163.43,290.59 166.10,272.94 168.77,317.06 171.44,281.76 174.11,281.76 176.78,281.76 179.45,343.53 539.83,220.00 542.50,175.88 545.17,228.82 547.84,184.71 550.51,220.00 553.18,184.71 555.85,211.18 558.52,175.88 561.19,220.00 563.86,202.35 566.53,228.82 569.19,167.06 571.86,202.35 574.53,202.35 577.20,193.53 579.87,184.71 582.54,149.41 585.21,211.18 587.88,211.18 590.55,211.18 593.22,175.88 595.89,211.18 598.56,202.35 601.23,122.94 603.90,158.24 606.57,202.35 609.24,237.65 611.91,220.00 614.58,184.71 617.25,175.88 619.92,211.18 622.58,228.82 625.25,220.00 627.92,131.76 630.59,167.06 633.26,237.65 635.93,202.35 638.60,167.06 641.27,220.00 643.94,202.35 646.61,193.53 649.28,167.06 651.95,167.06 654.62,167.06 657.29,202.35 659.96,220.00 662.63,211.18 665.30,193.53 667.97,220.00 670.64,228.82 673.31,228.82 675.97,211.18 678.64,175.88 681.31,175.88 683.98,105.29 686.65,184.71 689.32,149.41 691.99,184.71 694.66,184.71 697.33,246.47 700.00,317.06"/>
<polyline fill="none" stroke="#d62728" stroke-width="1.5" points="152.75,325.88 155.42,246.47 158.09,264.12 160.76,299.41 163.43,290.59 166.10,264.12 168.77,290.59 171.44,264.12 174.11,281.76 176.78,264.12 179.45,352.35 539.83,193.53 542.50,140.59 545.17,140.59 547.84,220.00 550.51,175.88 553.18,237.65 555.85,228.82 558.52,220.00 561.19,193.53 563.86,193.53 566.53,184.71 569.19,228.82 571.86,184.71 574.53,255.29 577.20,184.71 579.87,184.71 582.54,184.71 585.21,131.76 587.88,220.00 590.55,140.59 593.22,202.35 595.89,220.00 598.56,175.88 601.23,211.18 603.90,255.29 606.57,131.76 609.24,131.76 611.91,220.00 614.58,272.94 617.25,167.06 619.92,149.41 622.58,228.82 625.25,246.47 627.92,211.18 630.59,228.82 633.26,158.24 635.93,175.88 638.60,220.00 641.27,211.18 643.94,158.24 646.61,246.47 649.28,175.88 651.95,131.76 654.62,237.65 657.29,193.53 659.96,175.88 662.63,158.24 665.30,211.18 667.97,264.12 670.64,264.12 673.31,202.35 675.97,211.18 678.64,220.00 681.31,193.53 683.98,202.35 686.65,246.47 689.32,184.71 691.99,220.00 694.66,131.76 697.33,140.59 700.00,317.06"/>
<polyline fill="none" stroke="#9467bd" stroke-width="1.5" points="152.75,325.88 155.42,299.41 158.09,325.88 160.76,299.41 163.43,299.41 166.10,308.24 168.77,299.41 171.44,299.41 174.11,317.06 176.78,211.18 179.45,325.88 539.83,228.82 542.50,264.12 545.17,193.53 547.84,184.71 550.51,114.12 553.18,220.00 555.85,193.53 558.52,184.71 561.19,140.59 563.86,184.71 566.53,184.71 569.19,237.65 571.86,228.82 574.53,228.82 577.20,140.59 579.87,167.06 582.54,211.18 585.21,158.24 587.88,184.71 590.55,220.00 593.22,220.00 595.89,149.41 598.56,228.82 601.23,202.35 603.90,228.82 606.57,131.76 609.24,193.53 611.91,175.88 614.58,158.24 617.25,184.71 619.92,228.82 622.58,175.88 625.25,228.82 627.92,202.35 630.59,202.35 633.26,228.82 635.93,211.18 638.60,131.76 641.27,158.24 643.94,193.53 646.61,228.82 649.28,184.71 651.95,237.65 654.62,202.35 657.29,228.82 659.96,167.06 662.63,211.18 665.30,184.71 667.97,228.82 670.64,122.94 673.31,87.65 675.97,175.88 678.64,237.65 681.31,237.65 683.98,184.71 686.65,211.18 689.32,220.00 691.99,193.53 694.66,202.35 697.33,228.82 700.00,308.24"/>
<rect x="712" y="42" width="12" height="12" fill="#1f77b4"/>
<text class="label" x="728" y="52">getBalance</text>
<rect x="712" y="60" width="12" height="12" fill="#ff7f0e"/>
<text class="label" x="728" y="70">getAccountInfo</text>
<rect x="712" y="78" width="12" height="12" fill="#2ca02c"/>
<text class="label" x="728" y="88">getTokenAccountBalance</text>
<rect x="712" y="96" width="12" height="12" fill="#d62728"/>
<text class="label" x="728" y="106">getLatestBlockhash</text>
<rect x="712" y="114" width="12" height="12" fill="#9467bd"/>
<text class="label" x="728" y="124">getBlockHeight</text>

</svg>
