<svg xmlns="http://www.w3.org/2000/svg" viewBox="0 0 900 420" font-family="Arial, sans-serif" font-size="11">
<title>Per-Method Error Rate</title>
<style>
  .axis { stroke: #888; stroke-width: 1; }
  .gridline { stroke: #ddd; stroke-width: 0.5; }
  .label { fill: #333; }
  .title { font-size: 14px; font-weight: bold; fill: #222; }
</style>
<text class="title" x="450.0" y="22" text-anchor="middle">Per-Method Error Rate</text>
<rect x="70" y="40" width="630" height="330" fill="#fafafa" stroke="#ccc"/>

<line class="gridline" x1="70.0" y1="40" x2="70.0" y2="370"/>
<text class="label" x="70.0" y="384" text-anchor="middle">1779960436</text>
<line class="gridline" x1="196.0" y1="40" x2="196.0" y2="370"/>
<text class="label" x="196.0" y="384" text-anchor="middle">1779960483</text>
<line class="gridline" x1="322.0" y1="40" x2="322.0" y2="370"/>
<text class="label" x="322.0" y="384" text-anchor="middle">1779960530</text>
<line class="gridline" x1="448.0" y1="40" x2="448.0" y2="370"/>
<text class="label" x="448.0" y="384" text-anchor="middle">1779960577</text>
<line class="gridline" x1="574.0" y1="40" x2="574.0" y2="370"/>
<text class="label" x="574.0" y="384" text-anchor="middle">1779960624</text>
<line class="gridline" x1="700.0" y1="40" x2="700.0" y2="370"/>
<text class="label" x="700.0" y="384" text-anchor="middle">1779960672</text>
<line class="gridline" x1="70" y1="370.0" x2="700" y2="370.0"/>
<text class="label" x="65" y="373.0" text-anchor="end">0.0</text>
<line class="gridline" x1="70" y1="304.0" x2="700" y2="304.0"/>
<text class="label" x="65" y="307.0" text-anchor="end">22.0</text>
<line class="gridline" x1="70" y1="238.0" x2="700" y2="238.0"/>
<text class="label" x="65" y="241.0" text-anchor="end">44.0</text>
<line class="gridline" x1="70" y1="172.0" x2="700" y2="172.0"/>
<text class="label" x="65" y="175.0" text-anchor="end">66.0</text>
<line class="gridline" x1="70" y1="106.0" x2="700" y2="106.0"/>
<text class="label" x="65" y="109.0" text-anchor="end">88.0</text>
<line class="gridline" x1="70" y1="40.0" x2="700" y2="40.0"/>
<text class="label" x="65" y="43.0" text-anchor="end">110.0</text>
<text class="label" x="385.0" y="410" text-anchor="middle">time (epoch s)</text>
<text class="label" x="15" y="205.0" text-anchor="middle" transform="rotate(-90 15 205.0)">error rate (%)</text>

<polyline fill="none" stroke="#1f77b4" stroke-width="1.5" points="70.00,370.00 152.75,370.00 155.42,370.00 158.09,370.00 160.76,370.00 163.43,370.00 166.10,370.00 168.77,370.00 171.44,370.00 174.11,370.00 176.78,370.00 179.45,370.00 539.83,370.00 542.50,370.00 545.17,370.00 547.84,370.00 550.51,370.00 553.18,370.00 555.85,370.00 558.52,370.00 561.19,370.00 563.86,370.00 566.53,370.00 569.19,370.00 571.86,370.00 574.53,370.00 577.20,370.00 579.87,370.00 582.54,370.00 585.21,370.00 587.88,370.00 590.55,370.00 593.22,370.00 595.89,370.00 598.56,370.00 601.23,370.00 603.90,370.00 606.57,370.00 609.24,370.00 611.91,370.00 614.58,370.00 617.25,370.00 619.92,370.00 622.58,370.00 625.25,370.00 627.92,370.00 630.59,370.00 633.26,370.00 635.93,370.00 638.60,370.00 641.27,370.00 643.94,370.00 646.61,370.00 649.28,370.00 651.95,370.00 654.62,370.00 657.29,370.00 659.96,370.00 662.63,370.00 665.30,370.00 667.97,370.00 670.64,370.00 673.31,370.00 675.97,370.00 678.64,370.00 681.31,370.00 683.98,370.00 686.65,370.00 689.32,370.00 691.99,370.00 694.66,370.00 697.33,370.00 700.00,370.00"/>
<polyline fill="none" stroke="#ff7f0e" stroke-width="1.5" points="152.75,70.00 155.42,70.00 158.09,70.00 160.76,70.00 163.43,70.00 166.10,70.00 168.77,70.00 171.44,70.00 174.11,70.00 176.78,70.00 179.45,70.00 539.83,370.00 542.50,370.00 545.17,370.00 547.84,370.00 550.51,370.00 553.18,370.00 555.85,370.00 558.52,370.00 561.19,370.00 563.86,370.00 566.53,370.00 569.19,370.00 571.86,370.00 574.53,370.00 577.20,370.00 579.87,370.00 582.54,370.00 585.21,370.00 587.88,370.00 590.55,370.00 593.22,370.00 595.89,370.00 598.56,370.00 601.23,370.00 603.90,370.00 606.57,370.00 609.24,370.00 611.91,370.00 614.58,370.00 617.25,370.00 619.92,370.00 622.58,370.00 625.25,370.00 627.92,370.00 630.59,370.00 633.26,370.00 635.93,370.00 638.60,370.00 641.27,370.00 643.94,370.00 646.61,370.00 649.28,370.00 651.95,370.00 654.62,370.00 657.29,370.00 659.96,370.00 662.63,370.00 665.30,370.00 667.97,370.00 670.64,370.00 673.31,370.00 675.97,370.00 678.64,370.00 681.31,370.00 683.98,370.00 686.65,370.00 689.32,370.00 691.99,370.00 694.66,370.00 697.33,370.00 700.00,370.00"/>
<polyline fill="none" stroke="#2ca02c" stroke-width="1.5" points="152.75,70.00 155.42,70.00 158.09,70.00 160.76,70.00 163.43,70.00 166.10,70.00 168.77,70.00 171.44,70.00 174.11,70.00 176.78,70.00 179.45,70.00 539.83,370.00 542.50,370.00 545.17,370.00 547.84,370.00 550.51,370.00 553.18,370.00 555.85,370.00 558.52,370.00 561.19,370.00 563.86,370.00 566.53,370.00 569.19,370.00 571.86,370.00 574.53,370.00 577.20,370.00 579.87,370.00 582.54,370.00 585.21,370.00 587.88,370.00 590.55,370.00 593.22,370.00 595.89,370.00 598.56,370.00 601.23,370.00 603.90,370.00 606.57,370.00 609.24,370.00 611.91,370.00 614.58,370.00 617.25,370.00 619.92,370.00 622.58,370.00 625.25,370.00 627.92,370.00 630.59,370.00 633.26,370.00 635.93,370.00 638.60,370.00 641.27,370.00 643.94,370.00 646.61,370.00 649.28,370.00 651.95,370.00 654.62,370.00 657.29,370.00 659.96,370.00 662.63,370.00 665.30,370.00 667.97,370.00 670.64,370.00 673.31,370.00 675.97,370.00 678.64,370.00 681.31,370.00 683.98,370.00 686.65,370.00 689.32,370.00 691.99,370.00 694.66,370.00 697.33,370.00 700.00,370.00"/>
<polyline fill="none" stroke="#d62728" stroke-width="1.5" points="152.75,370.00 155.42,370.00 158.09,370.00 160.76,370.00 163.43,370.00 166.10,370.00 168.77,370.00 171.44,370.00 174.11,370.00 176.78,370.00 179.45,370.00 539.83,370.00 542.50,370.00 545.17,370.00 547.84,370.00 550.51,370.00 553.18,370.00 555.85,370.00 558.52,370.00 561.19,370.00 563.86,370.00 566.53,370.00 569.19,370.00 571.86,370.00 574.53,370.00 577.20,370.00 579.87,370.00 582.54,370.00 585.21,370.00 587.88,370.00 590.55,370.00 593.22,370.00 595.89,370.00 598.56,370.00 601.23,370.00 603.90,370.00 606.57,370.00 609.24,370.00 611.91,370.00 614.58,370.00 617.25,370.00 619.92,370.00 622.58,370.00 625.25,370.00 627.92,370.00 630.59,370.00 633.26,370.00 635.93,370.00 638.60,370.00 641.27,370.00 643.94,370.00 646.61,370.00 649.28,370.00 651.95,370.00 654.62,370.00 657.29,370.00 659.96,370.00 662.63,370.00 665.30,370.00 667.97,370.00 670.64,370.00 673.31,370.00 675.97,370.00 678.64,370.00 681.31,370.00 683.98,370.00 686.65,370.00 689.32,370.00 691.99,370.00 694.66,370.00 697.33,370.00 700.00,370.00"/>
<polyline fill="none" stroke="#9467bd" stroke-width="1.5" points="152.75,70.00 155.42,70.00 158.09,70.00 160.76,70.00 163.43,70.00 166.10,70.00 168.77,70.00 171.44,70.00 174.11,70.00 176.78,70.00 179.45,70.00 539.83,370.00 542.50,370.00 545.17,370.00 547.84,370.00 550.51,370.00 553.18,370.00 555.85,370.00 558.52,370.00 561.19,370.00 563.86,370.00 566.53,370.00 569.19,370.00 571.86,370.00 574.53,370.00 577.20,370.00 579.87,370.00 582.54,370.00 585.21,370.00 587.88,370.00 590.55,370.00 593.22,370.00 595.89,370.00 598.56,370.00 601.23,370.00 603.90,370.00 606.57,370.00 609.24,370.00 611.91,370.00 614.58,370.00 617.25,370.00 619.92,370.00 622.58,370.00 625.25,370.00 627.92,370.00 630.59,370.00 633.26,370.00 635.93,370.00 638.60,370.00 641.27,370.00 643.94,370.00 646.61,370.00 649.28,370.00 651.95,370.00 654.62,370.00 657.29,370.00 659.96,370.00 662.63,370.00 665.30,370.00 667.97,370.00 670.64,370.00 673.31,370.00 675.97,370.00 678.64,370.00 681.31,370.00 683.98,370.00 686.65,370.00 689.32,370.00 691.99,370.00 694.66,370.00 697.33,370.00 700.00,370.00"/>
<rect x="712" y="42" width="12" height="12" fill="#1f77b4"/>
<text class="label" x="728" y="52">getBalance</text>
<rect x="712" y="60" width="12" height="12" fill="#ff7f0e"/>
<text class="label" x="728" y="70">getAccountInfo</text>
<rect x="712" y="78" width="12" height="12" fill="#2ca02c"/>
<text class="label" x="728" y="88">getTokenAccountBalance</text>
<rect x="712" y="96" width="12" height="12" fill="#d62728"/>
<text class="label" x="728" y="106">getLatestBlockhash</text>
<rect x="712" y="114" width="12" height="12" fill="#9467bd"/>
<text class="label" x="728" y="124">getBlockHeight</text>

</svg>
